<?xml version="1.0" standalone="no"?>
<!DOCTYPE svg PUBLIC "-//W3C//DTD SVG 20010904//EN"
 "http://www.w3.org/TR/2001/REC-SVG-20010904/DTD/svg10.dtd">
<svg version="1.0" xmlns="http://www.w3.org/2000/svg"
 width="300.000000pt" height="165.000000pt" viewBox="0 0 300.000000 165.000000"
 preserveAspectRatio="xMidYMid meet">
<metadata>
Created by potrace 1.10, written by Peter Selinger 2001-2011
</metadata>
<g transform="translate(0.000000,165.000000) scale(0.100000,-0.100000)"
fill="#000000" stroke="none">
<path d="M570 1630 c0 -5 4 -10 9 -10 6 0 13 5 16 10 3 6 -1 10 -9 10 -9 0
-16 -4 -16 -10z"/>
<path d="M445 1343 c-85 -24 -132 -131 -92 -210 12 -23 154 -143 170 -143 1 0
2 21 1 47 -2 44 -6 51 -45 81 -24 18 -50 47 -57 63 -11 27 -10 34 8 60 28 39
79 41 108 4 20 -25 20 -41 20 -423 0 -218 -4 -407 -9 -419 -23 -61 -107 -62
-128 -1 -14 39 -3 58 56 103 44 33 47 39 49 85 1 28 0 50 -3 50 -6 0 -112 -85
-145 -117 -31 -29 -43 -76 -35 -128 11 -70 67 -115 142 -115 56 0 99 23 127
68 20 32 22 96 18 510 0 17 -4 32 -9 32 -5 0 -9 -115 -10 -256 -1 -141 -4
-261 -7 -265 -3 -5 -10 -6 -16 -3 -6 4 -8 3 -5 -2 7 -13 -2 -26 -33 -47 -28
-20 -73 -22 -118 -6 -38 13 -76 70 -67 99 3 11 2 20 -4 20 -7 0 -7 10 0 30 6
17 16 27 22 23 5 -3 7 -1 4 4 -10 17 102 108 115 95 13 -13 -8 -46 -23 -36 -5
3 -9 -2 -9 -11 0 -8 -8 -19 -17 -22 -47 -17 -74 -79 -52 -120 39 -73 130 -78
163 -9 15 33 26 232 13 253 -4 6 -3 14 3 18 6 4 8 10 6 13 -2 4 -7 112 -11
240 -6 192 -5 232 6 232 10 0 11 3 3 8 -7 4 -11 25 -11 47 3 103 -128 138
-165 45 -20 -48 -15 -69 24 -108 22 -22 38 -47 38 -60 l0 -24 -32 28 c-18 15
-32 31 -30 36 1 5 -2 7 -7 3 -6 -3 -17 7 -25 22 -17 33 -17 109 0 106 7 -1 10
5 7 15 -6 23 52 66 92 69 40 3 85 -15 79 -32 -4 -9 0 -12 13 -9 14 4 22 -5 36
-36 20 -47 21 -54 5 -44 -7 4 -8 3 -4 -5 4 -6 8 -54 8 -106 0 -68 4 -98 14
-106 8 -6 14 -28 14 -49 0 -36 3 -40 163 -160 89 -67 167 -124 173 -127 8 -3
11 11 9 44 -4 56 8 44 -203 198 l-151 110 -1 120 c0 131 -11 166 -64 200 -27
18 -89 27 -121 18z m55 -284 c0 -10 -4 -19 -10 -19 -5 0 -10 12 -10 26 0 14 4
23 10 19 6 -3 10 -15 10 -26z m183 -130 c22 3 27 0 21 -10 -4 -7 -1 -10 7 -7
8 3 21 -2 29 -11 8 -9 40 -33 70 -54 30 -20 69 -49 85 -65 16 -15 33 -26 38
-24 5 1 6 -2 3 -7 -3 -5 4 -11 17 -15 21 -5 21 -6 5 -23 -17 -16 -19 -15 -45
10 -16 15 -61 50 -101 77 -43 31 -70 55 -66 62 4 7 3 8 -5 4 -26 -16 -99 62
-83 88 3 5 8 2 12 -8 3 -10 9 -17 13 -17z"/>
<path d="M1104 1336 c-39 -17 -71 -58 -84 -106 -6 -22 -10 -197 -10 -431 1
-379 2 -396 22 -437 27 -57 68 -82 135 -82 41 0 58 5 83 26 63 54 79 133 37
195 -12 19 -62 63 -110 99 l-87 65 0 150 1 150 96 70 c108 79 128 110 120 183
-11 101 -110 158 -203 118z m112 -21 c41 -17 63 -51 69 -104 5 -54 -13 -84
-85 -142 -79 -64 -80 -65 -80 -32 0 22 8 33 35 47 19 11 35 23 35 28 0 5 6 6
13 2 6 -4 9 -4 5 1 -4 4 0 14 10 21 12 8 19 9 23 2 4 -6 7 0 6 13 0 13 1 29 2
34 15 49 -30 105 -83 105 -66 0 -93 -41 -96 -150 -2 -63 -1 -70 10 -70 6 0 10
31 10 74 0 59 4 78 21 100 41 52 119 24 119 -44 0 -33 -5 -39 -72 -89 -55 -41
-58 -45 -58 -88 0 -29 -5 -46 -14 -49 -22 -8 -23 -291 -1 -319 8 -11 15 -36
15 -56 0 -37 16 -57 93 -113 47 -35 52 -83 11 -115 -33 -26 -52 -26 -84 -1
-22 17 -25 27 -27 96 -3 88 -22 128 -21 45 0 -29 -2 -55 -5 -57 -8 -9 14 -76
30 -92 8 -8 31 -21 51 -28 31 -10 38 -10 45 1 4 8 15 12 25 9 13 -5 14 -4 4 4
-11 7 -11 10 2 15 22 8 38 53 30 82 -5 21 -98 108 -125 117 -6 2 -12 16 -13
30 -3 24 -1 26 16 17 40 -21 58 -43 45 -52 -8 -6 -4 -7 10 -4 17 4 31 -5 58
-34 19 -21 35 -42 36 -47 0 -4 3 -19 5 -34 7 -40 -20 -95 -58 -118 -43 -26
-99 -26 -123 0 -10 11 -24 20 -30 20 -23 0 -33 53 -34 168 0 39 0 78 -1 85 -6
78 -4 635 2 631 4 -3 8 4 8 16 0 12 16 36 35 54 39 37 78 43 131 21z"/>
<path d="M1430 900 c-17 -17 -20 -33 -20 -100 0 -78 1 -80 25 -80 23 0 24 3
27 78 3 76 3 77 31 80 l27 3 0 -80 c0 -81 0 -81 26 -81 22 0 25 3 20 23 -3 12
-6 50 -6 84 0 42 -5 66 -16 77 -23 23 -89 21 -114 -4z"/>
<path d="M1604 906 c-16 -12 -19 -27 -19 -86 0 -82 13 -100 75 -100 50 0 67
17 74 73 l6 47 -35 0 c-34 0 -49 -20 -25 -35 6 -3 10 -13 10 -21 0 -11 -9 -14
-32 -12 -31 3 -32 5 -33 50 -1 53 10 63 51 48 32 -13 64 -13 64 0 0 5 -10 18
-22 30 -26 24 -85 27 -114 6z"/>
<path d="M1776 825 c-14 -52 -26 -97 -26 -100 0 -3 10 -5 23 -5 21 0 25 8 39
63 l15 62 13 -62 c13 -58 16 -63 41 -63 l26 0 -13 43 c-7 23 -21 68 -29 100
-14 48 -20 57 -39 57 -21 0 -26 -10 -50 -95z m57 55 c-3 -10 -13 -25 -22 -32
-13 -10 -14 -10 -3 2 6 8 12 22 12 32 0 10 4 18 9 18 5 0 7 -9 4 -20z m14 -32
c-3 -8 -6 -5 -6 6 -1 11 2 17 5 13 3 -3 4 -12 1 -19z"/>
<path d="M1908 838 c4 -96 17 -118 69 -118 29 0 33 3 33 26 0 22 -4 25 -27 22
l-28 -3 0 78 c0 76 0 77 -25 77 -25 0 -25 0 -22 -82z"/>
<path d="M2076 903 c-15 -50 -46 -169 -46 -175 0 -5 10 -8 23 -8 21 0 25 7 34
58 6 32 7 58 2 60 -5 2 -9 11 -9 20 1 15 3 14 16 -3 15 -19 15 -19 9 10 l-6
30 15 -25 c9 -16 11 -27 4 -31 -7 -4 -6 -25 3 -63 11 -49 15 -56 36 -56 18 0
23 4 19 18 -2 9 -14 54 -26 100 -20 73 -25 82 -45 82 -14 0 -26 -7 -29 -17z"/>
<path d="M2193 820 l2 -100 61 0 c77 0 88 12 90 94 3 91 -10 106 -91 106 l-64
0 2 -100z m112 40 c0 -19 -55 -26 -66 -9 -12 20 -2 27 33 25 22 -1 33 -7 33
-16z m-65 -40 c0 -19 -18 -19 -23 -1 -3 14 -1 18 9 14 8 -3 14 -9 14 -13z m66
-31 c8 -13 -14 -29 -31 -22 -7 2 -19 -3 -28 -12 -10 -9 -18 -11 -22 -5 -3 5
-1 10 4 10 6 0 10 3 10 8 -4 23 4 32 30 32 17 0 33 -5 37 -11z"/>
<path d="M2394 837 c-12 -45 -25 -90 -29 -99 -6 -14 -2 -18 18 -18 22 0 27 6
37 49 6 28 9 58 6 68 -3 10 2 29 10 43 14 24 15 24 11 3 -3 -13 -1 -23 4 -23
5 0 6 -13 3 -28 -3 -16 -1 -47 6 -70 9 -34 15 -42 34 -42 l24 0 -24 82 c-13
45 -24 90 -24 100 0 13 -8 18 -27 18 -27 0 -29 -4 -49 -83z"/>
</g>
</svg>
